<svg width="1601" height="708" xmlns="http://www.w3.org/2000/svg" xmlns:xlink="http://www.w3.org/1999/xlink" overflow="hidden"><defs><clipPath id="clip0"><rect x="3" y="2" width="1601" height="708"/></clipPath></defs><g clip-path="url(#clip0)" transform="translate(-3 -2)"><rect x="627.5" y="59.5001" width="82" height="31" stroke="#000000" stroke-width="1.33333" stroke-miterlimit="8" fill="#FFF2CC"/><text font-family="Times New Roman,Times New Roman_MSFontService,sans-serif" font-weight="400" font-size="8" transform="translate(640.045 73)">DNN-<tspan font-size="8" x="20.1666" y="0">IBM</tspan><tspan font-size="8" x="35.3333" y="0">-</tspan><tspan font-size="8" x="38" y="0">SVM</tspan><tspan font-size="8" x="5.58667" y="9">(Wang, 2013)</tspan></text><rect x="628.5" y="108.5" width="82" height="31" stroke="#000000" stroke-width="1.33333" stroke-miterlimit="8" fill="#FFF2CC"/><text font-family="Times New Roman,Times New Roman_MSFontService,sans-serif" font-weight="400" font-size="8" transform="translate(651.286 122)">DNN-<tspan font-size="8" x="20.1666" y="0">IBM</tspan><tspan font-size="8" x="-4.5" y="9">(Wang, 2014)</tspan></text><rect x="529.5" y="108.5" width="83" height="31" stroke="#000000" stroke-width="1.33333" stroke-miterlimit="8" fill="#FFF2CC"/><text font-family="Times New Roman,Times New Roman_MSFontService,sans-serif" font-weight="400" font-size="8" transform="translate(552.957 122)">DNN-<tspan font-size="8" x="20.1666" y="0">IRM</tspan><tspan font-size="8" x="-4.5" y="9">(Wang, 2014)</tspan></text><rect x="704.5" y="150.5" width="77" height="32" stroke="#000000" stroke-width="1.33333" stroke-miterlimit="8" fill="#FFF2CC"/><text font-family="Times New Roman,Times New Roman_MSFontService,sans-serif" font-weight="400" font-size="8" transform="translate(724.247 164)">RNN-<tspan font-size="8" x="19.6667" y="0">PSM</tspan><tspan font-size="8" x="-8.2533" y="9">(Erdogan, 2015)</tspan></text><rect x="1034.5" y="108.5" width="82" height="31" stroke="#000000" stroke-width="1.33333" stroke-miterlimit="8" fill="#FFF2CC"/><text font-family="Times New Roman,Times New Roman_MSFontService,sans-serif" font-weight="400" font-size="8" transform="translate(1058.05 122)">DNN-<tspan font-size="8" x="20.1667" y="0">LPS</tspan><tspan font-size="8" x="-0.58667" y="9">(Xu, 2014)</tspan></text><rect x="425.5" y="203.5" width="89" height="31" stroke="#000000" stroke-width="1.33333" stroke-miterlimit="8" fill="#DAE3F3"/><text font-family="Times New Roman,Times New Roman_MSFontService,sans-serif" font-weight="400" font-size="8" transform="translate(450.05 217)">DNN-<tspan font-size="8" x="20.1667" y="0">cIRM</tspan><tspan font-size="8" x="-11.7533" y="9">(Williamson, 2016)</tspan></text><rect x="590.5" y="247.5" width="83" height="31" stroke="#000000" stroke-width="1.33333" stroke-miterlimit="8" fill="#FFF2CC"/><text font-family="Times New Roman,Times New Roman_MSFontService,sans-serif" font-weight="400" font-size="8" transform="translate(611.923 261)">LSTM<tspan font-size="8" x="21.3333" y="0">-</tspan><tspan font-size="8" x="24" y="0">IRM</tspan><tspan font-size="8" x="-1.5" y="9">(Chen, 2017)</tspan></text><rect x="1084.5" y="247.5" width="83" height="31" stroke="#000000" stroke-width="1.33333" stroke-miterlimit="8" fill="#FFF2CC"/><text font-family="Times New Roman,Times New Roman_MSFontService,sans-serif" font-weight="400" font-size="8" transform="translate(1106.66 261)">LSTM<tspan font-size="8" x="21.3334" y="0">-</tspan><tspan font-size="8" x="24" y="0">LPS</tspan><tspan font-size="8" x="0" y="9">(Sun, 2017)</tspan></text><rect x="620.5" y="151.5" width="64" height="31" stroke="#000000" stroke-width="1.33333" stroke-miterlimit="8" fill="#FFF2CC"/><text font-family="Times New Roman,Times New Roman_MSFontService,sans-serif" font-weight="400" font-size="8" transform="translate(631.059 165)">CMNN<tspan font-size="8" x="24.1666" y="0">-</tspan><tspan font-size="8" x="26.8333" y="0">IRM</tspan><tspan font-size="8" x="2.33331" y="9">(Hui, 2015)</tspan></text><rect x="1025.5" y="203.5" width="59" height="31" stroke="#000000" stroke-width="1.33333" stroke-miterlimit="8" fill="#FFF2CC"/><text font-family="Times New Roman,Times New Roman_MSFontService,sans-serif" font-weight="400" font-size="8" transform="translate(1037.48 217)">CNN-<tspan font-size="8" x="19.6667" y="0">LPS</tspan><tspan font-size="8" x="-0.166626" y="9">(Fu, 2016)</tspan></text><rect x="1176.5" y="203.5" width="59" height="31" stroke="#000000" stroke-width="1.33333" stroke-miterlimit="8" fill="#FFF2CC"/><text font-family="Times New Roman,Times New Roman_MSFontService,sans-serif" font-weight="400" font-size="8" transform="translate(1188.29 217)">CED-<tspan font-size="8" x="18.6667" y="0">Mag</tspan><tspan font-size="8" x="-3" y="9">(Park, 2016)</tspan></text><rect x="1044.5" y="299.5" width="82" height="31" stroke="#000000" stroke-width="1.33333" stroke-miterlimit="8" fill="#FFF2CC"/><text font-family="Times New Roman,Times New Roman_MSFontService,sans-serif" font-weight="400" font-size="8" transform="translate(1064.98 313)">EHNet<tspan font-size="8" x="22.1667" y="0">-</tspan><tspan font-size="8" x="24.8334" y="0">Mag</tspan><tspan font-size="8" x="-1.07996" y="9">(Zhao, 2018)</tspan></text><rect x="1166.5" y="299.5" width="83" height="31" stroke="#000000" stroke-width="1.33333" stroke-miterlimit="8" fill="#FFF2CC"/><text font-family="Times New Roman,Times New Roman_MSFontService,sans-serif" font-weight="400" font-size="8" transform="translate(1190.54 313)">CRN-<tspan font-size="8" x="19.1667" y="0">Mag</tspan><tspan font-size="8" x="-1.91333" y="9">(Tan, 2018)</tspan></text><rect x="1274.5" y="298.5" width="82" height="31" stroke="#000000" stroke-width="1.33333" stroke-miterlimit="8" fill="#FFF2CC"/><text font-family="Times New Roman,Times New Roman_MSFontService,sans-serif" font-weight="400" font-size="8" transform="translate(1298.13 312)">GRN-<tspan font-size="8" x="19.6667" y="0">Mag</tspan><tspan font-size="8" x="-1.66663" y="9">(Tan, 2018)</tspan></text><path d="M668.833 90.4784 669.558 101.629 668.893 101.672 668.167 90.5217ZM673.13 100.06 669.658 108.303 665.147 100.58Z"/><path d="M0.0600707-0.327876 90.6739 16.2736 90.5538 16.9294-0.0600707 0.327876ZM90.0233 12.4267 97.1714 17.8029 88.5816 20.2958Z" transform="matrix(-1 0 0 1 668.672 90.5001)"/><path d="M0.171499-0.285831 0.567233-0.0483905 0.930967 0.679077 1.32004 1.7166 1.64021 3.12535 2.20536 6.83025 2.76931 11.5925 3.20769 17.2288 3.52053 23.548 3.77078 30.2423 3.83332 37.1845 3.83201 37.1579 4.14451 40.6579 4.13409 40.5998 5.07159 44.0373 5.05346 43.9871 6.61596 47.4246 6.59547 47.3863 8.65797 50.6988 8.63479 50.6661 11.1973 53.8536 11.1732 53.8268 14.2357 56.8893 14.2165 56.8716 17.654 59.8091 17.6296 59.7901 21.4421 62.4776 21.4117 62.4585 29.9742 67.2085 29.9318 67.1887 39.5568 70.8762 39.5249 70.8658 44.5874 72.2408 44.5631 72.2352 49.7506 73.2352 49.7206 73.2308 53.6154 73.619 53.5493 74.2824 49.6393 73.8927 44.4247 72.8874 39.3339 71.5048 29.6713 67.8029 21.0726 63.0328 17.2328 60.326 13.7735 57.3699 10.689 54.2854 8.10264 51.0682 6.01804 47.7202 4.43546 44.2385 3.48312 40.7466 3.1668 37.2038 3.10418 30.253 3.1044 30.2624 2.8544 23.575 2.85457 23.579 2.54207 17.2665 2.54267 17.2758 2.10517 11.6508 2.10648 11.6642 1.54398 6.9142 1.54548 6.92527 0.982978 3.23777 0.987456 3.26137 0.674956 1.88637 0.68789 1.92954 0.31289 0.929541 0.326858 0.961571 0.0143576 0.336571 0.141001 0.473331-0.171499 0.285831ZM52.5006 69.8755 60.2361 74.3657 52.0027 77.86Z" transform="matrix(1.83697e-16 1 1 -1.83697e-16 668.5 90.5001)"/><path d="M571.79 139.336 629.392 241.218 628.812 241.546 571.21 139.664ZM631.927 238.253 632.383 247.186 624.964 242.19Z"/><path d="M571.547 139.17 646.382 149.782 646.289 150.442 571.453 139.83ZM645.577 145.965 652.936 151.048 644.454 153.886Z"/><path d="M0.167012-0.288475 1.43336 0.444673 2.6177 2.55017 3.75694 5.84131 4.88777 10.239 5.95309 15.6909 7.01733 22.139 7.95587 29.397 8.89406 37.528 9.70711 46.2839 10.4574 55.7252 11.1452 65.6044 11.708 75.9848 12.5208 97.7419 12.7708 120.121 12.7706 120.114 12.9581 125.739 12.9563 125.713 13.5813 131.338 13.5774 131.312 14.6399 136.875 14.6352 136.854 16.0727 142.417 16.068 142.4 17.818 147.962 17.8092 147.938 19.9967 153.376 19.9863 153.352 25.2988 164.102 25.2809 164.071 31.9059 174.446 31.8864 174.418 39.6989 184.293 39.6803 184.272 48.5553 193.709 48.5336 193.688 58.4086 202.438 58.3892 202.422 69.0767 210.547 69.0535 210.531 80.491 217.781 80.4688 217.768 92.5938 224.206 92.5694 224.194 105.194 229.631 105.169 229.622 118.169 233.997 118.141 233.989 131.516 237.239 131.486 237.233 145.111 239.233 145.079 239.23 152.099 239.579 152.065 240.245 145.03 239.895 131.374 237.89 117.97 234.633 104.943 230.249 92.2932 224.801 80.1449 218.351 68.6846 211.086 57.9758 202.945 48.0801 194.177 39.1849 184.718 31.3531 174.819 24.7092 164.414 19.383 153.636 17.1859 148.175 15.4294 142.592 13.9871 137.011 12.9201 131.425 12.2923 125.774 12.1042 120.132 11.8542 97.7537 11.8544 97.7624 11.0419 76.0124 11.0422 76.018 10.4797 65.643 10.48 65.6481 9.79247 55.7731 9.79271 55.7764 9.04271 46.3389 9.04309 46.3433 8.23059 37.5933 8.23136 37.6007 7.29386 29.4757 7.29442 29.4802 6.35692 22.2302 6.35862 22.2418 5.29612 15.8043 5.29785 15.8139 4.23535 10.3764 4.23967 10.3955 3.11467 6.02051 3.1225 6.04654 1.9975 2.79654 2.02197 2.85092 0.896975 0.85092 1.02049 0.975975-0.167012 0.288475ZM150.949 235.851 158.74 240.244 150.551 243.841Z" transform="matrix(1.83697e-16 1 1 -1.83697e-16 1075.5 139.5)"/><path d="M1054.8 234.357 1082.44 292.592 1081.84 292.878 1054.2 234.643ZM1085.18 289.815 1085 298.758 1077.95 293.245Z"/><path d="M1205.83 234.489 1207.78 292.083 1207.11 292.106 1205.17 234.511ZM1211.4 290.627 1207.67 298.758 1203.4 290.897Z"/><path d="M1126.58 278.176 1201.99 296.804 1201.83 297.451 1126.42 278.824ZM1201.58 292.925 1208.38 298.727 1199.66 300.691Z"/><rect x="712.5" y="313.5" width="59" height="31" stroke="#000000" stroke-width="1.33333" stroke-miterlimit="8" fill="#FFFFFF"/><text font-family="Times New Roman,Times New Roman_MSFontService,sans-serif" font-weight="400" font-size="8" transform="translate(726.029 327)">Spectrum <tspan font-size="8" x="-3.08667" y="9">Subtraction</tspan></text><rect x="121.5" y="109.5" width="82" height="31" stroke="#000000" stroke-width="1.33333" stroke-miterlimit="8" fill="#FFFFFF"/><text font-family="Times New Roman,Times New Roman_MSFontService,sans-serif" font-weight="400" font-size="8" transform="translate(150.079 128)">MMSE</text><rect x="4.50005" y="350.5" width="73" height="31" stroke="#000000" stroke-width="1.33333" stroke-miterlimit="8" fill="#9DC3E6"/><text font-family="Times New Roman,Times New Roman_MSFontService,sans-serif" font-weight="400" font-size="8" transform="translate(28.1013 363)">DeepXi<tspan font-size="8" x="-13.6667" y="9">(Nicolson,2019)</tspan></text><path d="M163.227 140.513 162.852 150.336 161.849 160.107 160.221 169.692 157.966 179.087 155.21 188.169 152.015 196.813 148.318 205.085 144.182 212.731 139.732 219.814 134.965 226.211 129.943 231.798 124.665 236.574 119.191 240.412 113.582 243.248 107.9 245.015 102.18 245.644 96.4929 246.269 96.5555 246.256 90.9305 248.006 90.9819 247.985 85.4194 250.797 85.4619 250.772 80.0869 254.584 80.1177 254.56 74.8677 259.31 74.8919 259.285 69.8919 264.848 69.9113 264.824 65.1613 271.199 65.1763 271.177 60.7388 278.24 60.7497 278.221 56.6247 285.846 56.6354 285.824 52.9479 294.012 52.9569 293.99 49.7695 302.677 49.7755 302.659 47.0255 311.722 47.0305 311.703 44.7805 321.016 44.7851 320.993 43.1601 330.556 43.1631 330.534 42.1631 340.284 42.1647 340.261 42.0587 343.392 41.3924 343.369 41.4988 340.227 42.5011 330.455 44.1298 320.87 46.3848 311.537 49.1403 302.457 52.3352 293.749 56.0326 285.54 60.1685 277.894 64.6188 270.811 69.3859 264.414 74.4076 258.827 79.685 254.052 85.0964 250.214 90.7059 247.377 96.3882 245.61 102.108 244.981 107.795 244.356 107.732 244.369 113.357 242.619 113.306 242.64 118.869 239.828 118.828 239.852 124.265 236.04 124.233 236.065 129.483 231.315 129.459 231.34 134.459 225.777 134.439 225.801 139.189 219.426 139.174 219.448 143.612 212.385 143.601 212.404 147.726 204.779 147.715 204.801 151.402 196.551 151.394 196.572 154.581 187.947 154.575 187.966 157.325 178.903 157.32 178.922 159.57 169.547 159.565 169.569 161.19 160.007 161.187 160.028 162.187 150.278 162.186 150.3 162.561 140.487ZM45.7684 342.183 41.5001 350.044 37.773 341.913Z"/><rect x="5.50005" y="405.5" width="71" height="31" stroke="#000000" stroke-width="1.33333" stroke-miterlimit="8" fill="#9DC3E6"/><text font-family="Times New Roman,Times New Roman_MSFontService,sans-serif" font-weight="400" font-size="8" transform="translate(20.2508 419)">DeepMMSE<tspan font-size="8" x="-1.58667" y="9">(Zhang,2020)</tspan></text><rect x="121.5" y="472.5" width="62" height="31" stroke="#000000" stroke-width="1.33333" stroke-miterlimit="8" fill="#9DC3E6"/><text font-family="Times New Roman,Times New Roman_MSFontService,sans-serif" font-weight="400" font-size="8" transform="translate(135.557 486)">PL<tspan font-size="8" x="9.33334" y="0">-</tspan><tspan font-size="8" x="12" y="0">ANSE</tspan><tspan font-size="8" x="-2.92" y="9">(Nian,2021)</tspan></text><rect x="625.5" y="298.5" width="61" height="32" stroke="#000000" stroke-width="1.33333" stroke-miterlimit="8" fill="#D9F0F1"/><text font-family="Times New Roman,Times New Roman_MSFontService,sans-serif" font-weight="400" font-size="8" transform="translate(639.463 312)">RNNoise<tspan font-size="8" x="-5.74664" y="9">(Valin, 2018)</tspan></text><path d="M712.472 329.691 709.827 329.347 709.913 328.686 712.557 329.03ZM707.844 329.09 707.617 329.06 705.277 328.117 705.526 327.499 707.827 328.426 707.745 328.405 707.93 328.429ZM703.422 327.37 703.358 327.344 701.611 326.179 701.169 325.715 701.652 325.255 702.068 325.693 702.012 325.645 703.699 326.77 703.639 326.738 703.671 326.751ZM699.877 324.112 699.452 323.426 699.127 321.996 699.015 321.504 699.665 321.357 699.777 321.849 700.09 323.224 700.048 323.122 700.444 323.761ZM698.296 319.775 698.04 319.342 698.091 319.408 696.841 318.158 696.892 318.2 696.562 317.98 696.932 317.425 697.289 317.664 698.593 318.967 698.87 319.436ZM694.938 317.005 692.886 316.361 693.086 315.725 695.138 316.369ZM693.357 320.243 686.5 314.5 695.209 312.46Z"/><path d="M632.719 278.248 651.397 294.482 650.96 294.985 632.281 278.752ZM652.796 290.84 656.211 299.107 647.548 296.878Z" fill="#A5A5A5"/><path d="M0.333333-0.000275263 0.3483 18.1245-0.318366 18.125-0.333333 0.000275263ZM4.01386 16.7881 0.0204724 24.7914-3.98613 16.7947Z" transform="matrix(-1 0 0 1 40.5205 381.5)"/><rect x="5.50005" y="472.5" width="72" height="31" stroke="#000000" stroke-width="1.33333" stroke-miterlimit="8" fill="#9DC3E6"/><text font-family="Times New Roman,Times New Roman_MSFontService,sans-serif" font-weight="400" font-size="8" transform="translate(23.6465 486)">TCN-<tspan font-size="8" x="18.6667" y="0">FAA</tspan><tspan font-size="8" x="-4.42" y="9">(Zhang,2021)</tspan></text><path d="M40.8333 436.495 41.2906 465.505 40.624 465.515 40.1668 436.505ZM44.9358 464.114 41.0624 472.176 36.9368 464.24Z"/><rect x="623.5" y="406.5" width="64" height="31" stroke="#000000" stroke-width="1.33333" stroke-miterlimit="8" fill="#D9F0F1"/><text font-family="Times New Roman,Times New Roman_MSFontService,sans-serif" font-weight="400" font-size="8" transform="translate(638.756 420)">PercepNet<tspan font-size="8" x="-4.92004" y="9">(Valin, 2020)</tspan></text><rect x="614.5" y="537.5" width="82" height="31" stroke="#000000" stroke-width="1.33333" stroke-miterlimit="8" fill="#D9F0F1"/><text font-family="Times New Roman,Times New Roman_MSFontService,sans-serif" font-weight="400" font-size="8" transform="translate(632.583 551)">DeepFilterNet<tspan font-size="8" x="-3.41333" y="9">(</tspan><tspan font-size="8" x="-0.746704" y="9">Schröter</tspan>, 2022)</text><path d="M655.833 437.5 655.833 530.623 655.167 530.623 655.167 437.5ZM659.5 529.289 655.5 537.289 651.5 529.289Z"/><rect x="483.5" y="405.5" width="67" height="31" stroke="#000000" stroke-width="1.33333" stroke-miterlimit="8" fill="#FFF2CC"/><text font-family="Times New Roman,Times New Roman_MSFontService,sans-serif" font-weight="400" font-size="8" transform="translate(497.265 419)">NSNet<tspan font-size="8" x="21.8333" y="0">-</tspan><tspan font-size="8" x="24.5" y="0">cprs</tspan><tspan font-size="8" x="-3.5" y="9">(Braun, 2020)</tspan></text><path d="M0.247232-0.223578 111.101 122.358 110.606 122.805-0.247232 0.223578ZM112.926 118.909 115.325 127.526 106.992 124.275Z" transform="matrix(-1 0 0 1 631.825 278.5)"/><rect x="952.5" y="247.5" width="58" height="31" stroke="#000000" stroke-width="1.33333" stroke-miterlimit="8" fill="#DAE3F3"/><text font-family="Times New Roman,Times New Roman_MSFontService,sans-serif" font-weight="400" font-size="8" transform="translate(961.94 261)">CNN-<tspan font-size="8" x="19.6667" y="0">STFT</tspan><tspan font-size="8" x="2.2467" y="9">(Fu, 2017)</tspan></text><path d="M1054.94 234.606 1054.73 235.251 1054.01 235.898 1052.96 236.487 1051.61 237.064 1047.95 238.137 1043.24 239.016 1037.67 239.831 1031.53 240.457 1024.89 240.833 1018.07 240.958 1011.26 241.083 1011.27 241.083 1004.64 241.458 1004.66 241.457 998.47 242.082 998.482 242.08 992.982 242.83 993.02 242.823 987.648 244.208 987.481 243.563 992.873 242.172 998.398 241.419 1004.6 240.793 1011.24 240.417 1018.06 240.292 1024.87 240.167 1024.86 240.167 1031.48 239.792 1031.47 239.793 1037.59 239.168 1037.58 239.17 1043.14 238.358 1043.13 238.36 1047.81 237.485 1047.78 237.493 1051.41 236.43 1051.37 236.444 1052.68 235.881 1052.65 235.897 1053.65 235.335 1053.59 235.377 1054.21 234.815 1054.12 234.957 1054.31 234.395ZM990.439 246.971 981.5 246.654 987.117 239.693Z" fill="#A5A5A5"/><rect x="940.5" y="350.5" width="83" height="31" stroke="#000000" stroke-width="1.33333" stroke-miterlimit="8" fill="#DAE3F3"/><text font-family="Times New Roman,Times New Roman_MSFontService,sans-serif" font-weight="400" font-size="8" transform="translate(959.563 364)">GCRN<tspan font-size="8" x="22.3334" y="0">-</tspan><tspan font-size="8" x="25" y="0">STFT</tspan><tspan font-size="8" x="3" y="9">(Tan, 2019)</tspan></text><path d="M1208.75 330.549 1208.5 332.289 1207.65 333.991 1206.3 335.726 1204.51 337.385 1202.17 339.029 1199.46 340.667 1196.26 342.301 1192.68 343.871 1188.66 345.438 1184.28 346.943 1174.39 349.884 1163.12 352.7 1150.68 355.265 1137.17 357.704 1122.66 359.83 1107.4 361.706 1091.39 363.332 1074.88 364.645 1058 365.583 1040.81 366.146 1030.17 366.285 1030.16 365.619 1040.8 365.479 1040.79 365.479 1057.98 364.917 1057.97 364.917 1074.84 363.98 1074.84 363.98 1091.34 362.668 1091.33 362.668 1107.33 361.043 1107.32 361.044 1122.57 359.169 1122.56 359.17 1137.06 357.045 1137.05 357.047 1150.55 354.61 1150.55 354.611 1162.98 352.049 1162.97 352.052 1174.22 349.239 1174.2 349.243 1184.08 346.306 1184.07 346.31 1188.44 344.81 1188.43 344.815 1192.43 343.252 1192.42 343.257 1195.98 341.695 1195.96 341.703 1199.15 340.078 1199.13 340.09 1201.81 338.465 1201.8 338.477 1204.11 336.852 1204.07 336.881 1205.82 335.256 1205.79 335.295 1207.1 333.608 1207.06 333.663 1207.88 332.038 1207.85 332.139 1208.1 330.451ZM1031.55 369.934 1023.5 366.04 1031.45 361.935Z" fill="#A5A5A5"/><rect x="396.5" y="350.5" width="71" height="31" stroke="#000000" stroke-width="1.33333" stroke-miterlimit="8" fill="#DAE3F3"/><text font-family="Times New Roman,Times New Roman_MSFontService,sans-serif" font-weight="400" font-size="8" transform="translate(406.205 364)">DCUNet-<tspan font-size="8" x="31.1667" y="0">pcRM</tspan><tspan font-size="8" x="5.16666" y="9">(Choi, 2019)</tspan></text><rect x="392.5" y="405.5" width="76" height="31" stroke="#000000" stroke-width="1.33333" stroke-miterlimit="8" fill="#DAE3F3"/><text font-family="Times New Roman,Times New Roman_MSFontService,sans-serif" font-weight="400" font-size="8" transform="translate(404.753 419)">DCCRN<tspan font-size="8" x="27.6667" y="0">-</tspan><tspan font-size="8" x="30.3333" y="0">pcRM</tspan><tspan font-size="8" x="7.58667" y="9">(Hu, 2020)</tspan></text><rect x="201.5" y="442.5" width="71" height="32" stroke="#000000" stroke-width="1.33333" stroke-miterlimit="8" fill="#FFFFFF"/><text font-family="Times New Roman,Times New Roman_MSFontService,sans-serif" font-weight="400" font-size="8" transform="translate(227 456)">Phase <tspan font-size="8" x="-14.7533" y="9">Reconstruction</tspan></text><rect x="317.5" y="406.5" width="67" height="31" stroke="#000000" stroke-width="1.33333" stroke-miterlimit="8" fill="#DAE3F3"/><text font-family="Times New Roman,Times New Roman_MSFontService,sans-serif" font-weight="400" font-size="8" transform="translate(327.252 420)">PHASEN<tspan font-size="8" x="31.3333" y="0">-</tspan><tspan font-size="8" x="34" y="0">MP</tspan><tspan font-size="8" x="4.16669" y="9">(Yin, 2020)</tspan></text><path d="M0.0113894-0.333139 2.6765-0.242024 2.65372 0.424254-0.0113894 0.333139ZM4.67533-0.173688 7.34044-0.0825728 7.31766 0.583705 4.65255 0.49259ZM9.33927-0.0142367 12.0044 0.0768782 11.9816 0.743156 9.31649 0.652041ZM14.0032 0.145214 14.6461 0.167194 16.6802 0.356205 16.6186 1.02001 14.5942 0.831903 14.6136 0.833139 13.9804 0.811492ZM18.6717 0.541248 21.3269 0.787973 21.2652 1.45178 18.61 1.20506ZM23.3183 0.973016 25.9735 1.21974 25.9119 1.88355 23.2566 1.63682ZM27.965 1.40478 28.7919 1.48162 30.6268 1.7759 30.5212 2.43415 28.6972 2.14163 28.7192 2.1444 27.9033 2.06859ZM32.6015 2.0926 35.2345 2.51488 35.129 3.17313 32.4959 2.75086ZM37.2093 2.83159 39.8423 3.25386 39.7367 3.91212 37.1037 3.48984ZM41.8171 3.57057 42.0614 3.60975 44.4439 4.12029 44.3042 4.77216 41.9302 4.26343 41.9472 4.26663 41.7115 4.22883ZM46.3995 4.53935 48.2004 4.92525 49.0116 5.12806 48.8499 5.77482 48.0442 5.57338 48.0552 5.57593 46.2598 5.19122ZM50.9519 5.61313 53.539 6.2599 53.3773 6.90666 50.7902 6.2599ZM55.4751 6.81594 58.031 7.57662 57.8408 8.21559 55.2849 7.45491ZM59.9514 8.18041 62.4745 9.04358 62.2587 9.67435 59.7356 8.81118ZM64.3798 9.73027 66.827 10.7895 66.5622 11.4013 64.115 10.3421ZM68.6682 11.6258 71.0362 12.8521 70.7296 13.4441 68.3616 12.2178ZM72.7178 14.0486 74.5858 15.6445 74.1528 16.1513 72.2847 14.5554ZM76.8212 12.4677 78.2886 21.2908 70.3497 17.1709Z" transform="matrix(1 0 0 -1 272.5 458.791)"/><rect x="197.5" y="350.5" width="62" height="31" stroke="#000000" stroke-width="1.33333" stroke-miterlimit="8" fill="#DAE3F3"/><text font-family="Times New Roman,Times New Roman_MSFontService,sans-serif" font-weight="400" font-size="8" transform="translate(209.775 364)">LSTM<tspan font-size="8" x="21.3333" y="0">-</tspan><tspan font-size="8" x="24" y="0">MP</tspan><tspan font-size="8" x="-3.5" y="9">(Wang, 2019)</tspan></text><rect x="266.5" y="350.5" width="65" height="31" stroke="#000000" stroke-width="1.33333" stroke-miterlimit="8" fill="#DAE3F3"/><text font-family="Times New Roman,Times New Roman_MSFontService,sans-serif" font-weight="400" font-size="8" transform="translate(282.671 364)">DNN-<tspan font-size="8" x="20.1667" y="0">MP</tspan><tspan font-size="8" x="-6.91998" y="9">(Zheng, 2019)</tspan></text><path d="M0.0167504-0.499719 4.01451-0.365716 3.981 0.633722-0.0167504 0.499719ZM7.01282-0.265214 11.0106-0.131211 10.9771 0.868227 6.97932 0.734224ZM14.0225 0.0786325 16.411 0.251301 18.0246 0.425424 17.9171 1.41963 16.3389 1.2487 13.9504 1.07603ZM21.0072 0.74787 21.0537 0.752896 24.9546 1.38138 25.0141 1.39392 24.7954 2.36862 24.7954 2.36862 20.9463 1.7471 20.8998 1.74208ZM27.9383 2.06405 27.9867 2.07513 29.9797 2.77879C30.0567 2.80611 30.1259 2.8519 30.1811 2.91214L30.8686 3.66214 31.4613 4.30869 30.7241 4.98442 30.1314 4.33786 29.4439 3.58786 29.6453 3.72121 27.7633 3.04987 27.715 3.03878ZM34.0202 5.12969 36.2367 5.63763 37.9044 5.87412 37.763 6.86407 36.0133 6.61237 33.7968 6.10442ZM40.8611 6.27202 44.6795 6.69048 44.8252 6.70261 44.7412 7.69907 44.5705 7.68452 40.7521 7.26607ZM47.8146 6.95473 49.8545 7.12677 51.7766 7.17125 51.753 8.17097 49.7705 8.12323 47.7306 7.95119ZM53.0692 3.70081 60.9725 7.88861 52.8803 11.6986Z" transform="matrix(-1.83697e-16 -1 -1 1.83697e-16 236.389 442.473)"/><path d="M236.004 442.468 236.484 438.497 237.476 438.617 236.996 442.588ZM237.147 435.475 238.5 431.711 239.441 432.049 238.088 435.814ZM239.969 428.996 241.821 425.897C241.836 425.872 241.853 425.848 241.872 425.826L242.127 425.531 242.883 426.185 242.628 426.48 242.679 426.41 240.827 429.509ZM244.089 423.262 245.872 421.201C245.889 421.181 245.908 421.162 245.928 421.145L246.905 420.325 247.548 421.091 246.572 421.911 246.628 421.855 244.846 423.916ZM249.202 418.396 250.616 417.208C250.639 417.188 250.665 417.17 250.692 417.155L252.566 416.096 253.058 416.967 251.183 418.026 251.259 417.973 249.845 419.161ZM255.179 414.621 256.004 414.155C256.031 414.14 256.058 414.128 256.087 414.118L258.973 413.124 259.298 414.069 256.413 415.063 256.496 415.026 255.67 415.492ZM261.918 412.144 265.891 411.675 266.008 412.668 262.036 413.138ZM268.87 411.322 272.842 410.852 272.96 411.845 268.987 412.315ZM275.603 410.025 278.962 408.868 278.877 408.906 279.265 408.684 279.761 409.553 279.373 409.775C279.346 409.79 279.317 409.803 279.288 409.813L275.929 410.97ZM281.87 407.196 284.127 405.906 284.053 405.958 285.126 405.057 285.769 405.823 284.697 406.723C284.674 406.743 284.649 406.76 284.623 406.775L282.366 408.064ZM287.423 403.127 288.741 402.02 288.687 402.073 290.189 400.36 290.941 401.019 289.438 402.733C289.422 402.752 289.404 402.77 289.384 402.786L288.066 403.893ZM292.167 398.104 292.687 397.511 292.632 397.586 294.264 394.821 295.126 395.329 293.493 398.095C293.477 398.122 293.459 398.147 293.438 398.17L292.918 398.763ZM295.703 392.326 296.894 388.507 297.849 388.805 296.658 392.623ZM293.384 388.652 298.754 381.5 301.254 390.088Z"/><path d="M631.736 278.786 631.386 278.996 630.445 279.265 629.046 279.456 627.098 279.707 624.589 279.895 624.593 279.895 621.65 280.145 618.144 280.333 614.267 280.521 609.891 280.708 609.894 280.708 605.142 280.958 599.951 281.146 594.387 281.333 582.135 281.646 568.572 282.021 553.82 282.333 538.07 282.583 521.382 282.833 504.005 283.083 486.004 283.208 467.566 283.333 430.003 283.458 430.008 283.458 411.133 283.833 411.147 283.833 392.459 284.958 392.473 284.957 374.036 286.832 374.047 286.83 356.047 289.268 356.061 289.266 338.686 292.391 338.697 292.389 322.072 295.951 322.086 295.948 306.273 300.073 306.288 300.069 291.538 304.631 291.555 304.625 278.055 309.625 278.072 309.618 265.822 314.931 265.837 314.924 260.275 317.674 260.288 317.667 255.101 320.542 255.112 320.535 250.362 323.41 250.378 323.4 246.003 326.4 246.018 326.389 242.143 329.389 242.159 329.376 238.659 332.438 238.68 332.418 235.742 335.481 235.762 335.458 233.262 338.583 233.285 338.551 231.348 341.676 231.378 341.612 230.303 344.637 229.674 344.413 230.762 341.355 232.729 338.182 235.251 335.03 238.209 331.946 241.727 328.868 245.618 325.856 250.009 322.845 254.772 319.962 259.972 317.08 265.549 314.323 277.815 309.003 291.332 303.997 306.098 299.429 321.925 295.301 338.562 291.736 355.95 288.608 373.963 286.169 392.412 284.293 411.114 283.167 429.998 282.792 467.563 282.667 467.562 282.667 486 282.542 504 282.417 503.997 282.417 521.372 282.167 538.059 281.917 553.809 281.667 553.807 281.667 568.557 281.354 568.555 281.354 582.118 280.979 594.368 280.667 594.366 280.667 599.927 280.479 605.115 280.292 605.109 280.292 609.861 280.042 614.238 279.855 614.236 279.855 618.111 279.667 618.109 279.667 621.609 279.48 621.599 279.48 624.538 279.23 627.039 279.043 627.022 279.044 628.959 278.794 628.957 278.795 630.332 278.607 630.285 278.617 631.16 278.367 631.08 278.402 631.393 278.214ZM234.185 344.119 228.5 351.023 226.387 342.332Z" fill="#A5A5A5"/><path d="M632.621 278.767 632.308 279.001 631.54 279.141 630.341 279.33 628.701 279.52 626.692 279.645 626.696 279.645 624.195 279.833 621.376 280.02 618.122 280.146 610.559 280.458 601.682 280.771 591.618 281.083 580.429 281.333 568.24 281.583 555.176 281.771 541.426 281.958 527.05 282.146 512.173 282.271 496.985 282.333 465.923 282.458 465.929 282.458 450.367 282.833 450.384 282.832 434.884 284.02 434.898 284.019 419.711 285.831 419.728 285.829 404.853 288.391 404.867 288.388 390.492 291.513 390.506 291.51 376.756 295.135 376.774 295.13 363.774 299.317 363.79 299.312 351.602 303.937 351.621 303.929 340.434 308.991 340.453 308.982 330.328 314.357 330.351 314.343 321.476 320.031 321.503 320.011 314.003 325.949 314.025 325.93 310.775 328.993 310.794 328.973 307.982 332.098 307.994 332.083 305.494 335.208 305.515 335.18 303.515 338.305 303.531 338.276 301.906 341.464 301.929 341.405 301.033 344.505 300.392 344.32 301.297 341.189 302.944 337.959 304.963 334.806 307.48 331.659 310.308 328.517 313.578 325.435 321.102 319.478 330.003 313.775 340.149 308.388 351.356 303.317 363.561 298.685 376.578 294.493 390.343 290.863 404.733 287.735 419.623 285.17 434.826 283.356 450.342 282.167 465.917 281.792 496.982 281.667 512.17 281.604 512.169 281.604 527.044 281.479 527.042 281.479 541.417 281.292 555.167 281.104 568.229 280.917 568.227 280.917 580.414 280.667 591.601 280.417 591.599 280.417 601.661 280.104 601.66 280.104 610.535 279.792 610.533 279.792 618.096 279.479 621.346 279.354 621.337 279.355 624.149 279.167 624.146 279.168 626.648 278.98 628.651 278.855 628.633 278.856 630.258 278.669 630.244 278.671 631.432 278.483 631.424 278.485 632.112 278.36 631.971 278.421 632.221 278.233ZM304.888 343.829 299.5 350.968 297.022 342.374Z" fill="#A5A5A5"/><rect x="481.5" y="471.5" width="70" height="31" stroke="#000000" stroke-width="1.33333" stroke-miterlimit="8" fill="#DAE3F3"/><text font-family="Times New Roman,Times New Roman_MSFontService,sans-serif" font-weight="400" font-size="8" transform="translate(495.04 484)">CRUSE<tspan font-size="8" x="25.8333" y="0">-</tspan><tspan font-size="8" x="28.5" y="0">cprs</tspan><tspan font-size="8" x="-1.5" y="9">(Braun, 2021)</tspan></text><path d="M0.333326-0.00219926 0.514013 27.3832-0.152639 27.3876-0.333326 0.00219926ZM4.1718 26.0258 0.224672 34.052-3.82802 26.0785Z" fill="#A5A5A5" transform="matrix(-1 0 0 1 516.725 436.5)"/><path d="M0.00177539-0.333329 46.9406-0.0833213 69.942 0.229197 92.3821 0.604239 114.134 1.16678 134.948 1.72932 154.638 2.4169 173.015 3.16701 181.704 3.60459 181.703 3.60451 189.954 3.97959 197.832 4.41721 205.272 4.85487 212.211 5.35503 212.21 5.35493 218.65 5.79261 224.653 6.29282 230.093 6.73053 234.974 7.23113 239.294 7.73207 243.002 8.29761 245.333 8.859 245.177 9.50715 242.859 8.94907 242.887 8.95452 239.2 8.39202 239.212 8.39361 234.899 7.89362 234.903 7.89409 230.028 7.39409 230.036 7.39476 224.597 6.95718 218.597 6.45718 218.602 6.45757 212.164 6.02002 205.226 5.51997 205.23 5.52026 197.793 5.08276 197.794 5.08282 189.919 4.64532 189.922 4.64549 181.672 4.27045 172.983 3.83291 172.986 3.83306 154.611 3.08306 154.613 3.08313 134.926 2.39563 134.928 2.39571 114.116 1.83322 92.3664 1.27072 92.3694 1.27079 69.933 0.895803 46.933 0.583303 46.9357 0.583329-0.00177539 0.333329ZM245.154 4.96792 251.629 11.1389 242.807 12.6159Z" transform="matrix(1.83697e-16 1 1 -1.83697e-16 469.5 234.5)"/><rect x="867.5" y="3.50005" width="71" height="31" stroke="#000000" stroke-width="1.33333" stroke-miterlimit="8" fill="#FFFFFF"/><text font-family="Times New Roman,Times New Roman_MSFontService,sans-serif" font-weight="400" font-size="8" transform="translate(884.168 17)">Progressive <tspan font-size="8" x="4.33337" y="9">Learning</tspan></text><rect x="331.5" y="203.5" width="70" height="31" stroke="#000000" stroke-width="1.33333" stroke-miterlimit="8" fill="#D9F0F1"/><text font-family="Times New Roman,Times New Roman_MSFontService,sans-serif" font-weight="400" font-size="8" transform="translate(351.439 217)">DNN-<tspan font-size="8" x="20.1667" y="0">PL</tspan><tspan font-size="8" x="-4.58002" y="9">(Gao, 2016)</tspan></text><path d="M366.957 234.599 366.312 236.664 364.487 238.815 361.493 240.789 357.586 242.743 352.687 244.627 346.981 246.445 340.466 248.137 333.204 249.702 325.382 251.141 316.999 252.455 308.115 253.644 298.855 254.582 279.53 255.958 259.522 256.458 259.535 256.458 254.535 256.77 254.575 256.765 249.575 257.703 249.61 257.694 244.61 259.194 244.642 259.183 239.705 261.245 239.736 261.23 234.798 263.918 234.819 263.906 229.944 267.031 229.967 267.015 225.154 270.702 225.172 270.688 220.422 274.875 220.439 274.859 215.814 279.547 215.822 279.537 211.197 284.6 211.212 284.583 206.774 290.145 206.782 290.135 202.407 296.073 202.416 296.06 198.166 302.435 198.173 302.424 194.048 309.174 194.057 309.158 186.245 323.658 186.254 323.639 179.004 339.389 179.012 339.37 172.512 356.245 172.519 356.226 166.831 374.039 166.836 374.022 161.961 392.585 161.966 392.566 158.091 411.816 158.094 411.798 155.219 431.486 155.221 431.467 153.408 451.53 153.41 451.51 153.024 464.996 152.357 464.977 152.743 451.48 154.558 431.398 157.435 411.693 161.314 392.425 166.194 373.844 171.887 356.014 178.394 339.12 185.653 323.351 193.475 308.834 197.608 302.071 201.866 295.684 206.249 289.735 210.698 284.158 215.335 279.083 219.972 274.383 224.74 270.18 229.572 266.477 234.469 263.338 239.432 260.637 244.401 258.561 249.435 257.051 254.473 256.106 259.499 255.792 279.506 255.292 279.49 255.293 298.803 253.918 298.793 253.918 308.043 252.981 308.032 252.982 316.907 251.795 316.9 251.796 325.275 250.483 325.266 250.485 333.079 249.047 333.069 249.049 340.319 247.487 340.305 247.49 346.805 245.802 346.788 245.807 352.475 243.995 352.457 244.001 357.332 242.126 357.302 242.139 361.177 240.202 361.143 240.222 364.08 238.284 364.01 238.347 365.76 236.284 365.696 236.401 366.321 234.401ZM156.727 463.768 152.5 471.651 148.73 463.54Z"/><rect x="554.5" y="405.5" width="66" height="31" stroke="#000000" stroke-width="1.33333" stroke-miterlimit="8" fill="#D9F0F1"/><text font-family="Times New Roman,Times New Roman_MSFontService,sans-serif" font-weight="400" font-size="8" transform="translate(576.312 414)">DTLN<tspan font-size="8" x="-10.92" y="9">(</tspan><tspan font-size="8" x="-8.25336" y="9">Westhausen</tspan>, <tspan font-size="8" x="1.33331" y="19">2020)</tspan></text><rect x="871.5" y="472.5" width="83" height="31" stroke="#000000" stroke-width="1.33333" stroke-miterlimit="8" fill="#D9F0F1"/><text font-family="Times New Roman,Times New Roman_MSFontService,sans-serif" font-weight="400" font-size="8" transform="translate(882.376 485)">CTSNet&amp;SDDNet<tspan font-size="8" x="13.8333" y="9">(Li, 2021)</tspan></text><path d="M981.854 381.515 981.666 385.78 981.098 390.004 978.836 398.299 975.44 405.971 970.974 412.891 965.692 418.739 962.85 421.202 959.819 423.285 956.723 424.928 953.495 426.194 950.26 426.955 946.984 427.207 943.734 427.457 943.785 427.449 940.597 428.199 940.645 428.184 937.52 429.434 937.55 429.421 934.425 431.046 934.462 431.023 931.525 433.085 931.549 433.067 928.674 435.504 928.706 435.473 923.456 441.286 923.49 441.241 919.115 448.116 919.137 448.074 915.7 455.699 915.718 455.648 913.531 463.898 913.54 463.844 913.376 465.586 912.712 465.524 912.879 463.754 915.081 455.451 918.539 447.779 922.942 440.86 928.226 435.01 931.129 432.548 934.097 430.464 937.257 428.822 940.42 427.556 943.657 426.795 946.933 426.543 950.183 426.293 950.132 426.301 953.32 425.551 953.274 425.565 956.462 424.315 956.427 424.331 959.49 422.706 959.457 422.725 962.457 420.663 962.428 420.686 965.24 418.248 965.211 418.277 970.461 412.464 970.428 412.507 974.866 405.632 974.841 405.678 978.216 398.053 978.199 398.1 980.449 389.85 980.44 389.893 981.003 385.706 981 385.735 981.188 381.485ZM917.139 464.552 912.5 472.199 909.166 463.9Z"/><rect x="917.5" y="537.5" width="82" height="31" stroke="#000000" stroke-width="1.33333" stroke-miterlimit="8" fill="#D9F0F1"/><text font-family="Times New Roman,Times New Roman_MSFontService,sans-serif" font-weight="400" font-size="8" transform="translate(944.581 551)">GaGNet<tspan font-size="8" x="-2.83331" y="9">(Li, 2022)</tspan></text><rect x="336.5" y="537.5" width="52" height="31" stroke="#000000" stroke-width="1.33333" stroke-miterlimit="8" fill="#D9F0F1"/><text font-family="Times New Roman,Times New Roman_MSFontService,sans-serif" font-weight="400" font-size="8" transform="translate(347.054 551)">UFormer<tspan font-size="8" x="-1.57999" y="9">(Fu, 2022)</tspan></text><rect x="443.5" y="537.5" width="62" height="31" stroke="#000000" stroke-width="1.33333" stroke-miterlimit="8" fill="#D9F0F1"/><text font-family="Times New Roman,Times New Roman_MSFontService,sans-serif" font-weight="400" font-size="8" transform="translate(462.125 551)">HGCN<tspan font-size="8" x="-9.91333" y="9">(Wang, 2022)</tspan></text><path d="M912.702 503.235 952.937 533.889 952.533 534.419 912.298 503.765ZM954.099 530.164 958.038 538.194 949.251 536.528Z"/><path d="M430.805 436.365 472.57 530.927 471.96 531.197 430.195 436.635ZM475.385 528.226 474.958 537.16 468.067 531.458Z"/><rect x="768.5" y="350.5" width="65" height="31" stroke="#000000" stroke-width="1.33333" stroke-miterlimit="8" fill="#D9F0F1"/><text font-family="Times New Roman,Times New Roman_MSFontService,sans-serif" font-weight="400" font-size="8" transform="translate(783.695 364)">Two<tspan font-size="8" x="14.6666" y="0">-</tspan><tspan font-size="8" x="17.3333" y="0">stage</tspan><tspan font-size="8" x="-6" y="9">(Strake, 2019)</tspan></text><path d="M655.833 330.5 655.942 400.002 655.276 400.003 655.167 330.501ZM659.607 398.663 655.619 406.669 651.607 398.675Z"/><path d="M0.330759 0.0413449 0.268259 0.541345 0.270833 0.5 0.270833 1.8795 0.208212 4.19651 0.208333 4.1875 0.208333 7.25269 0.14579 11.1304 0.145833 11.125 0.145833 15.627 0.0833085 20.7541 0.0833333 20.75 0.0833333 26.4392 0.0208163 32.6284 0.0208333 32.625 0.0208333 39.25 0.0208333 53.5007-0.0416695 68.8139-0.0416667 68.8125-0.0416667 84.5625-0.0421719 84.5442 0.395328 92.4817 0.392048 92.4499 1.57955 100.262 1.57276 100.229 3.57276 107.979 3.56462 107.952 6.18962 115.452 6.17863 115.425 9.49113 122.737 9.47913 122.714 13.3541 129.714 13.3394 129.689 17.7769 136.314 17.7618 136.294 22.6368 142.481 22.616 142.457 27.991 148.082 27.9731 148.065 33.6606 153.19 33.6393 153.172 39.6393 157.735 39.6098 157.715 45.9223 161.527 45.8921 161.511 52.3921 164.573 52.3589 164.56 59.0464 166.872 58.997 166.86 65.9058 168.113 65.7868 168.769 58.8528 167.511 52.1241 165.184 45.5924 162.107 39.2499 158.276 33.2247 153.694 27.5176 148.552 22.123 142.906 17.2302 136.696 12.7777 130.049 8.88939 123.025 5.56527 115.687 2.93075 108.159 0.923001 100.379-0.269449 92.5343-0.708333 84.5717-0.708333 68.8118-0.645831 53.4986-0.645833 53.5-0.645833 39.25-0.645833 32.6233-0.583316 26.4341-0.583333 26.4375-0.583333 20.748-0.520809 15.6209-0.520833 15.625-0.520833 11.1223-0.45829 7.24462-0.458333 7.25-0.458333 4.183-0.395712 1.86599-0.395833 1.875-0.395833 0.479248-0.330759-0.0413449ZM64.8672 164.34 72.4876 169.022 64.169 172.309Z" fill="#A5A5A5" transform="matrix(1.83697e-16 1 1 -1.83697e-16 632.5 278.5)"/><rect x="763.5" y="405.5" width="76" height="31" stroke="#000000" stroke-width="1.33333" stroke-miterlimit="8" fill="#D9F0F1"/><text font-family="Times New Roman,Times New Roman_MSFontService,sans-serif" font-weight="400" font-size="8" transform="translate(773.088 419)">Mask and <tspan font-size="8" x="33.3333" y="0">inpaint</tspan><tspan font-size="8" x="8.33331" y="9">(Hao, 2020)</tspan></text><path d="M0.0368105 0.331295-2.21319 0.581295-2.13679 0.563518-4.38679 1.37602-4.33462 1.35191-6.52212 2.60191-6.4756 2.56981-8.6006 4.31981-8.57331 4.29466-10.6358 6.41966-10.6122 6.39259-12.6122 8.95509-12.5889 8.92106-16.2139 14.9836-16.1933 14.9432-19.2558 22.1307-19.243 22.0949-21.618 30.0949-21.6092 30.0575-23.1092 38.62-23.1048 38.5837-23.6673 47.3962-23.6671 47.3585-23.2296 56.171-23.2327 56.1393-21.9827 64.7019-21.9885 64.6715-20.051 72.6715-20.0602 72.6405-17.5602 79.828-17.575 79.7922-14.6375 85.8547-14.656 85.8215-13.031 88.384-13.0477 88.36-11.4227 90.485-11.4518 90.4518-9.7018 92.2018-9.74825 92.1631-7.93576 93.4131-7.98865 93.3833-6.17615 94.1958-6.26695 94.1698-4.44889 94.4206-2.58474 94.742-0.696814 95.6534 1.16839 97.1327 2.95274 99.1719 4.59578 101.636 6.23244 104.469 7.80552 107.741 9.25265 111.39 11.6981 119.542 13.6413 128.631 14.895 138.347 15.0237 141.648 14.3575 141.674 14.2294 138.388 14.2319 138.418 12.9819 128.73 12.9865 128.757 11.049 119.695 11.0557 119.721 8.61822 111.596 8.62764 111.623 7.19014 107.998 7.19958 108.019 5.63708 104.769 5.64888 104.792 4.02388 101.979 4.03515 101.997 2.41015 99.5599 2.43664 99.5945 0.686641 97.5945 0.730368 97.6362-1.08213 96.1987-1.01992 96.2377-2.83242 95.3627-2.74414 95.391-4.55664 95.0785-4.54555 95.0802-6.40531 94.8237-8.28916 93.9792-10.1517 92.6947-11.9388 90.9076-13.5862 88.7534-15.2292 86.1625-18.1834 80.0654-20.6952 72.8442-22.6401 64.8134-23.8946 56.2199-24.3339 47.3726-23.769 38.523-22.2625 29.9236-19.8766 21.8869-16.7978 14.6609-13.1505 8.5612-11.1267 5.96824-9.03875 3.817-6.87751 2.03716-4.64034 0.758777-2.32607-0.0769329-0.0368105-0.331295ZM18.6356 140.173 14.9503 148.323 10.6417 140.485Z" transform="matrix(-6.12323e-17 -1 -1 6.12323e-17 981.823 381.45)"/><path d="M801.833 381.497 801.997 398.824 801.33 398.83 801.167 381.503ZM805.651 397.456 801.726 405.493 797.651 397.531Z"/><rect x="697.5" y="405.5" width="54" height="31" stroke="#000000" stroke-width="1.33333" stroke-miterlimit="8" fill="#D9F0F1"/><text font-family="Times New Roman,Times New Roman_MSFontService,sans-serif" font-weight="400" font-size="8" transform="translate(706.908 419)">SI<tspan font-size="8" x="7.16663" y="0">-</tspan><tspan font-size="8" x="9.83331" y="0">NE</tspan><tspan font-size="8" x="20.5" y="0">-</tspan><tspan font-size="8" x="23.1666" y="0">NR</tspan><tspan font-size="8" x="-0.166687" y="9">(Xu, 2020)</tspan></text><path d="M741.951 344.517 741.819 348.514 740.819 348.481 740.951 344.484ZM741.629 351.541 741.227 355.52 740.232 355.42 740.634 351.44ZM740.769 358.513 740.382 360.953 740.013 362.479 739.041 362.243 739.394 360.797 739.781 358.357ZM739.304 365.394 739.249 365.618 738.099 369.244 737.146 368.942 738.277 365.382 738.332 365.158ZM736.824 372.033 736.527 372.654C736.51 372.689 736.489 372.721 736.465 372.751L734.903 374.689C734.852 374.751 734.788 374.801 734.715 374.833L733.961 375.164 733.559 374.249 734.312 373.917 734.124 374.061 735.687 372.124 735.625 372.221 735.922 371.601ZM731.521 376.382 730.215 378.001 730.277 377.904 729.447 379.635 728.545 379.203 729.375 377.471C729.392 377.437 729.412 377.404 729.437 377.374L730.742 375.754ZM728.359 382.357 727.55 384.783 727.236 386.143 726.262 385.917 726.601 384.467 727.41 382.041ZM726.555 389.065 726.5 389.301 725.926 392.978 724.938 392.823 725.526 389.074 725.581 388.838ZM725.57 395.92 725.314 398.897 724.318 398.812 724.574 395.834ZM728.874 397.712 724.5 405.514 720.883 397.333Z"/><rect x="766.5" y="472.5" width="75" height="31" stroke="#000000" stroke-width="1.33333" stroke-miterlimit="8" fill="#D9F0F1"/><text font-family="Times New Roman,Times New Roman_MSFontService,sans-serif" font-weight="400" font-size="8" transform="translate(791.746 486)">NE<tspan font-size="8" x="10.6666" y="0">-</tspan><tspan font-size="8" x="13.3333" y="0">SR</tspan><tspan font-size="8" x="-6.58002" y="9">(Liu, 2021)</tspan></text><path d="M0.0488496-0.329734 1.77278-0.0743369 3.46525 0.57661 5.14294 1.67356 6.74732 3.1496 9.78165 7.13215 12.491 12.2359 14.8176 18.2095 16.5767 24.9319 17.707 32.1532 18.0829 39.5456 18.4579 46.9206 18.4543 46.8855 19.5793 54.0105 19.5725 53.9781 21.3225 60.6656 21.311 60.6301 23.6235 66.6301 23.6061 66.5922 26.2936 71.5922 26.2444 71.5233 29.9111 75.4767 29.4223 75.9301 25.7266 71.9454 23.009 66.8894 20.6823 60.8525 18.9233 54.1309 17.793 46.9721 17.4171 39.5794 17.0421 32.2044 17.0457 32.239 15.9207 25.0515 15.9275 25.0844 14.1775 18.3969 14.1894 18.4335 11.8769 12.496 11.8931 12.5313 9.20558 7.4688 9.23486 7.51451 6.23486 3.57701 6.27431 3.62031 4.71181 2.18281 4.75508 2.21649 3.13008 1.15399 3.19284 1.18612 1.56784 0.561115 1.63865 0.579734-0.0488496 0.329734ZM30.4911 71.5684 35.4569 79.0076 26.5261 78.5167Z" transform="matrix(1.83697e-16 1 1 -1.83697e-16 724.5 436.5)"/><path d="M0.00453304-0.333303 23.0119-0.0203938 23.0028 0.646211-0.00453304 0.333303ZM21.7285-3.70485 29.6734 0.40357 21.6197 4.29441Z" transform="matrix(-1 0 0 1 871.173 487.5)"/><path d="M801.833 436.476 803.927 465.284 803.262 465.332 801.168 436.524ZM807.487 463.688 804.078 471.957 799.508 464.268Z"/><path d="M0.0035459-0.333314 2.67006-0.304947 2.66297 0.361682-0.0035459 0.333314ZM4.66995-0.283672 7.33646-0.255305 7.32937 0.411324 4.66286 0.382957ZM9.33635-0.234029 12.0029-0.205662 11.9958 0.460967 9.32926 0.4326ZM14.0028-0.184387 16.6693-0.15602 16.6622 0.510609 13.9957 0.482242ZM18.6692-0.134744 21.3357-0.106377 21.3286 0.560252 18.6621 0.531885ZM23.3356-0.0851016 23.5075-0.0832719 26.0087 0.0034354 25.9856 0.669702 23.4885 0.583133 23.4965 0.583314 23.3285 0.581527ZM28.0075 0.0727271 30.6726 0.165116 30.6495 0.831382 27.9844 0.738994ZM32.6714 0.234408 35.3364 0.326797 35.3134 0.993063 32.6483 0.900674ZM37.3352 0.396088 40.0003 0.488477 39.9772 1.15474 37.3122 1.06235ZM41.9991 0.557769 44.6642 0.650158 44.6411 1.31642 41.976 1.22404ZM46.663 0.71945 46.9526 0.729491 49.3329 0.8635 49.2954 1.52911 46.9188 1.39531 46.9259 1.39563 46.6399 1.38572ZM51.3297 0.975923 53.9922 1.12582 53.9547 1.79143 51.2923 1.64154ZM55.989 1.23824 58.6515 1.38814 58.614 2.05375 55.9515 1.90385ZM60.6483 1.50056 63.3108 1.65046 63.2733 2.31607 60.6108 2.16617ZM65.3076 1.76288 67.97 1.91278 67.9326 2.57839 65.2701 2.42849ZM69.9669 2.0252 70.2719 2.04237 72.6327 2.22007 72.5826 2.88485 70.225 2.70739 70.2313 2.70781 69.9294 2.69081ZM74.627 2.37018 77.2862 2.57033 77.2362 3.23512 74.577 3.03497ZM79.2805 2.72044 81.9397 2.92059 81.8897 3.58538 79.2305 3.38523ZM83.9341 3.07071 86.5932 3.27086 86.5432 3.93564 83.884 3.73549ZM88.5876 3.42097 91.2467 3.62112 91.1967 4.28591 88.5375 4.08576ZM93.2411 3.77123 93.5292 3.79292 95.9033 4.03162 95.8366 4.69494 93.4667 4.45666 93.475 4.45739 93.191 4.43602ZM97.8933 4.2317 100.547 4.49847 100.48 5.16179 97.8266 4.89502ZM102.537 4.69855 105.19 4.96532 105.123 5.62864 102.47 5.36187ZM107.18 5.1654 109.833 5.43217 109.766 6.09549 107.113 5.82872ZM111.823 5.63225 114.476 5.89902 114.41 6.56234 111.756 6.29557ZM116.466 6.0991 116.536 6.10612 119.12 6.41057 119.042 7.07266 116.461 6.76854 116.467 6.76916 116.4 6.76242ZM121.107 6.64457 123.755 6.95657 123.677 7.61865 121.029 7.30666ZM125.741 7.19056 128.39 7.50256 128.312 8.16465 125.663 7.85265ZM130.376 7.73656 133.024 8.04856 132.946 8.71065 130.298 8.39865ZM135.011 8.28256 137.659 8.59455 137.581 9.25664 134.933 8.94464ZM139.652 8.83644 142.292 9.21048 142.199 9.87056 139.559 9.49651ZM144.273 9.49101 146.913 9.86506 146.819 10.5251 144.179 10.1511ZM148.893 10.1456 151.533 10.5196 151.44 11.1797 148.8 10.8057ZM153.514 10.8002 156.154 11.1742 156.06 11.8343 153.42 11.4602ZM158.134 11.4547 160.774 11.8288 160.681 12.4889 158.041 12.1148ZM162.758 12.1263 165.391 12.5479 165.286 13.2062 162.653 12.7846ZM167.366 12.8641 169.999 13.2857 169.894 13.944 167.261 13.5224ZM171.974 13.6019 174.607 14.0235 174.502 14.6818 171.869 14.2602ZM176.582 14.3397 179.215 14.7613 179.11 15.4196 176.477 14.998ZM181.19 15.0775 183.823 15.4991 183.718 16.1574 181.085 15.7358ZM185.799 15.8545 188.422 16.3355 188.302 16.9913 185.679 16.5103ZM190.389 16.6963 193.012 17.1773 192.892 17.833 190.269 17.352ZM194.979 17.538 197.602 18.019 197.482 18.6748 194.859 18.1938ZM199.569 18.3798 202.192 18.8608 202.072 19.5165 199.449 19.0355ZM204.159 19.2215 205.938 19.5477 206.786 19.7206 206.652 20.3738 205.808 20.2016 205.815 20.2029 204.039 19.8772ZM208.745 20.1206 211.358 20.6538 211.225 21.307 208.612 20.7738ZM213.318 21.0537 215.93 21.5869 215.797 22.2401 213.184 21.7069ZM217.89 21.9869 220.503 22.5201 220.37 23.1733 217.757 22.6401ZM222.462 22.92 225.075 23.4532 224.942 24.1064 222.329 23.5732ZM227.035 23.8532 227.383 23.9241 229.644 24.4372 229.497 25.0873 227.239 24.5751 227.246 24.5766 226.902 24.5064ZM231.595 24.8797 234.195 25.4697 234.048 26.1198 231.447 25.5298ZM236.146 25.9121 238.746 26.5021 238.599 27.1523 235.998 26.5623ZM240.697 26.9446 243.297 27.5346 243.15 28.1847 240.549 27.5948ZM245.248 27.9771 247.848 28.5671 247.701 29.2172 245.1 28.6272ZM249.798 29.0401 252.387 29.6813 252.226 30.3284 249.638 29.6872ZM254.328 30.1622 256.916 30.8033 256.756 31.4504 254.168 30.8093ZM258.858 31.2842 261.446 31.9254 261.286 32.5725 258.697 31.9313ZM263.388 32.4063 265.976 33.0474 265.816 33.6945 263.227 33.0534ZM267.917 33.5283 268.771 33.7399 270.503 34.2121 270.327 34.8552 268.6 34.3841 268.607 34.3861 267.757 34.1754ZM272.432 34.7383 275.005 35.4399 274.83 36.0831 272.257 35.3815ZM276.935 35.9662 279.507 36.6678 279.332 37.311 276.759 36.6094ZM281.437 37.1941 284.009 37.8957 283.834 38.5389 281.261 37.8372ZM285.939 38.4219 288.512 39.1236 288.336 39.7668 285.764 39.0651ZM290.437 39.6918 292.993 40.4527 292.803 41.0917 290.247 40.3307ZM294.91 41.0234 297.466 41.7844 297.275 42.4233 294.72 41.6624ZM299.383 42.3551 301.938 43.116 301.748 43.755 299.192 42.994ZM303.855 43.6868 306.411 44.4477 306.221 45.0867 303.665 44.3257ZM308.333 45.028 310.87 45.8509 310.664 46.485 308.128 45.6621ZM312.772 46.468 315.309 47.2909 315.103 47.925 312.566 47.1022ZM317.211 47.9081 319.748 48.731 319.542 49.3651 317.005 48.5422ZM321.65 49.3481 324.187 50.171 323.981 50.8051 321.444 49.9823ZM326.089 50.7882 326.732 50.9969 328.616 51.6665 328.393 52.2947 326.513 51.6266 326.522 51.6296 325.883 51.4223ZM330.501 52.3363 333.014 53.2293 332.79 53.8575 330.278 52.9644ZM334.898 53.899 337.411 54.7921 337.188 55.4202 334.675 54.5272ZM339.295 55.4618 341.808 56.3548 341.585 56.983 339.072 56.09ZM343.693 57.0246 344.678 57.3748 346.199 57.9589 345.96 58.5813 344.443 57.9987 344.451 58.0016 343.469 57.6528ZM348.066 58.676 350.555 59.6321 350.316 60.2544 347.827 59.2983ZM352.422 60.3491 354.912 61.3052 354.673 61.9275 352.183 60.9715ZM356.779 62.0222 359.268 62.9783 359.029 63.6007 356.54 62.6446ZM361.135 63.6954 361.936 64.003 363.614 64.7022 363.358 65.3176 361.684 64.6202 361.693 64.6237 360.896 64.3177ZM365.461 65.4715 367.922 66.4971 367.666 67.1125 365.204 66.0868ZM369.768 67.2663 372.23 68.292 371.973 68.9073 369.512 67.8817ZM374.076 69.0612 376.538 70.0868 376.281 70.7022 373.82 69.6766ZM378.384 70.856 378.446 70.8819 380.821 71.965 380.544 72.5716 378.174 71.4908 378.184 71.4952 378.127 71.4715ZM382.641 72.7948 385.067 73.9012 384.79 74.5078 382.364 73.4014ZM386.887 74.731 389.313 75.8374 389.036 76.444 386.61 75.3376ZM391.133 76.6672 393.559 77.7736 393.282 78.3802 390.856 77.2738ZM395.369 78.6499 397.758 79.8344 397.462 80.4317 395.072 79.2472ZM399.55 80.7228 401.939 81.9072 401.643 82.5045 399.254 81.3201ZM403.731 82.7956 406.12 83.98 405.824 84.5773 403.435 83.3929ZM407.912 84.8684 408.841 85.3292 410.283 86.1151 409.964 86.7004 408.528 85.9177 408.539 85.9236 407.616 85.4657ZM412.039 87.0722 414.381 88.3484 414.062 88.9338 411.72 87.6576ZM416.137 89.3056 418.478 90.5818 418.159 91.1672 415.818 89.8909ZM420.234 91.5389 422.576 92.8151 422.257 93.4005 419.915 92.1243ZM424.308 93.8412 426.597 95.2083 426.255 95.7807 423.966 94.4136ZM428.314 96.2336 430.604 97.6007 430.262 98.1731 427.973 96.806ZM432.321 98.626 434.611 99.9931 434.269 100.566 431.979 99.1984ZM436.32 101.06 438.543 102.534 438.174 103.09 435.952 101.616ZM440.209 103.64 442.432 105.113 442.063 105.669 439.841 104.195ZM444.098 106.219 446.321 107.692 445.952 108.248 443.73 106.774ZM447.984 108.835 450.122 110.429 449.723 110.963 447.586 109.369ZM451.725 111.625 453.863 113.219 453.464 113.753 451.327 112.159ZM455.466 114.414 457.604 116.008 457.206 116.543 455.068 114.949ZM459.182 117.269 461.218 118.99 460.788 119.499 458.751 117.778ZM462.746 120.281 464.782 122.003 464.352 122.512 462.315 120.791ZM466.31 123.294 468.035 124.752 468.345 125.048 467.884 125.53 467.582 125.241 467.597 125.255 465.88 123.803ZM469.79 126.43 471.717 128.273 471.256 128.755 469.329 126.912ZM473.162 129.656 475.089 131.499 474.629 131.981 472.702 130.138ZM476.535 132.882 476.679 133.019 478.322 134.9 477.82 135.338 476.186 133.469 476.207 133.491 476.074 133.363ZM479.638 136.405 481.393 138.413 480.891 138.852 479.136 136.844ZM482.709 139.919 484.073 141.479 484.44 141.985 483.901 142.376 483.543 141.883 483.561 141.907 482.207 140.358ZM485.615 143.603 487.182 145.761 486.642 146.153 485.076 143.995ZM488.357 147.38 489.923 149.538 489.384 149.929 487.817 147.771ZM490.977 151.278 492.297 153.595 491.717 153.925 490.398 151.608ZM493.286 155.333 494.606 157.651 494.026 157.98 492.707 155.663ZM495.496 159.486 496.499 161.957 495.881 162.207 494.878 159.736ZM497.251 163.81 498.254 166.281 497.636 166.531 496.633 164.061ZM498.881 168.225 499.519 170.814 498.871 170.974 498.233 168.384ZM499.997 172.756 500.635 175.345 499.988 175.505 499.35 172.916ZM500.896 177.376 500.937 177.857 500.273 177.914 500.231 177.433ZM504.476 176.215 501.175 184.528 496.505 176.899Z" transform="matrix(-1 1.22465e-16 1.22465e-16 1 867.675 19.5001)"/><path d="M0.333186-0.00990591 9.99313 324.903 9.32676 324.923-0.333186 0.00990591ZM13.6185 323.461 9.85806 331.576 5.62208 323.699Z" transform="matrix(-1 0 0 1 162.358 140.5)"/><path d="M0.178688-0.281392 95.7111 60.383 95.3537 60.9458-0.178688 0.281392ZM96.551 56.5729 101.16 64.2381 92.2625 63.3263Z" fill="#A5A5A5" transform="matrix(-1 0 0 1 570.66 139.5)"/><path d="M0.31458-0.110228 42.6402 120.683 42.011 120.903-0.31458 0.110228ZM45.6597 118.212 44.5302 127.085 38.1097 120.858Z" fill="#A5A5A5" transform="matrix(-1 0 0 1 632.03 278.5)"/><path d="M0.33237-0.0253217 1.69439 17.8524 1.02965 17.9031-0.33237 0.0253217ZM5.24917 16.2444 1.86845 24.5251-2.72771 16.8521Z" transform="matrix(-1 0 0 1 432.368 381.5)"/><path d="M0.273417-0.190668 115.838 165.528 115.291 165.909-0.273417 0.190668ZM118.083 162.337 119.378 171.187 111.521 166.913Z" transform="matrix(-1 0 0 1 469.878 234.5)"/><path d="M0.316828-0.10359 35.9198 108.787 35.2861 108.994-0.316828 0.10359ZM38.9905 106.38 37.6748 115.227 31.3866 108.866Z" transform="matrix(-1 0 0 1 470.175 234.5)"/><path d="M0.276938-0.185517 64.0953 95.0819 63.5414 95.453-0.276938 0.185517ZM66.3996 91.9336 67.5287 100.806 59.753 96.386Z" transform="matrix(-1 0 0 1 430.029 436.5)"/><rect x="1382.5" y="298.5" width="68" height="31" stroke="#000000" stroke-width="1.33333" stroke-miterlimit="8" fill="#F4B183"/><text font-family="Times New Roman,Times New Roman_MSFontService,sans-serif" font-weight="400" font-size="8" transform="translate(1404.08 312)">TasNet<tspan font-size="8" x="-7.58667" y="9">(Luo, 2018)</tspan></text><rect x="1524.5" y="299.5" width="79" height="31" stroke="#000000" stroke-width="1.33333" stroke-miterlimit="8" fill="#F4B183"/><text font-family="Times New Roman,Times New Roman_MSFontService,sans-serif" font-weight="400" font-size="8" transform="translate(1542.72 313)">Wave-<tspan font-size="8" x="21.1666" y="0">U</tspan><tspan font-size="8" x="27" y="0">-</tspan><tspan font-size="8" x="29.6666" y="0">Net</tspan><tspan font-size="8" x="-9.08667" y="9">(Macartney, 2018)</tspan></text><rect x="1453.5" y="298.5" width="68" height="31" stroke="#000000" stroke-width="1.33333" stroke-miterlimit="8" fill="#F4B183"/><text font-family="Times New Roman,Times New Roman_MSFontService,sans-serif" font-weight="400" font-size="8" transform="translate(1473.16 312)">AECNN<tspan font-size="8" x="-10.5" y="9">(Pandey, 2018)</tspan></text><rect x="1390.5" y="350.5" width="68" height="31" stroke="#000000" stroke-width="1.33333" stroke-miterlimit="8" fill="#F4B183"/><text font-family="Times New Roman,Times New Roman_MSFontService,sans-serif" font-weight="400" font-size="8" transform="translate(1402.06 364)">Conv<tspan font-size="8" x="17.3333" y="0">-</tspan><tspan font-size="8" x="20" y="0">TasNet</tspan><tspan font-size="8" x="2.41333" y="9">(Luo, 2019)</tspan></text><rect x="1318.5" y="350.5" width="68" height="31" stroke="#000000" stroke-width="1.33333" stroke-miterlimit="8" fill="#F4B183"/><text font-family="Times New Roman,Times New Roman_MSFontService,sans-serif" font-weight="400" font-size="8" transform="translate(1340.54 364)">TCNN<tspan font-size="8" x="-13.4133" y="9">(Pandey, 2019)</tspan></text><path d="M1416.81 329.381 1422.42 344.068 1421.8 344.305 1416.19 329.619ZM1425.37 341.514 1424.49 350.414 1417.9 344.368Z"/><path d="M1315.67 329.213 1346.17 347.112 1345.83 347.687 1315.33 329.788ZM1346.88 343.275 1351.75 350.774 1342.83 350.174Z" fill="#A5A5A5"/><rect x="1477.5" y="405.5" width="76" height="31" stroke="#000000" stroke-width="1.33333" stroke-miterlimit="8" fill="#F4B183"/><text font-family="Times New Roman,Times New Roman_MSFontService,sans-serif" font-weight="400" font-size="8" transform="translate(1498.48 419)">DEMUCS<tspan font-size="8" x="-10.58" y="9">(</tspan><tspan font-size="8" x="-7.91333" y="9">Défossez</tspan><tspan font-size="8" x="21.42" y="9">, 2020)</tspan></text><path d="M0.281225-0.178952 44.7678 69.7321 44.2053 70.09-0.281225 0.178952ZM47.1455 66.6387 48.0656 75.5355 40.3961 70.9336Z" transform="matrix(-1 0 0 1 1563.57 330.5)"/><path d="M0.128205-0.307692 0.939074 0.0301699 1.82977 0.920862 2.61581 2.29644 3.31466 4.20239 4.07087 6.47102 4.70082 9.1168 5.95384 15.5072 7.0186 23.0858 7.83245 31.5373 8.33315 40.5499 8.52077 49.8683 8.51977 49.8484 8.89477 54.5359 8.88639 54.4837 10.0114 59.1087 9.99519 59.0593 11.8702 63.5593 11.8547 63.527 14.2922 67.9645 14.2718 67.932 17.3343 72.2445 17.3129 72.2175 20.9379 76.3425 20.9157 76.3195 25.0407 80.1945 25.022 80.1783 29.5845 83.8658 29.5591 83.8471 34.5591 87.1596 34.5415 87.1487 39.854 90.2112 39.8298 90.1985 45.3923 92.8235 45.3692 92.8137 51.2442 95.0637 51.2235 95.0565 57.286 96.9315 57.2567 96.9239 63.4442 98.2364 63.413 98.2313 69.3759 98.9159 69.2999 99.5782 63.3213 98.8919 57.1035 97.5729 51.016 95.6902 45.1191 93.4318 39.5329 90.7956 34.1995 87.7211 29.1777 84.3942 24.5933 80.6889 20.4476 76.7945 16.8007 72.6446 13.7171 68.3023 11.2617 63.8323 9.36977 59.2916 8.23234 54.6155 7.85443 49.8917 7.66673 40.5692 7.66718 40.581 7.16718 31.581 7.1682 31.5945 6.3557 23.1569 6.35741 23.1714 5.29491 15.6089 5.29789 15.6266 4.0479 9.25164 4.05073 9.26471 3.42573 6.63971 3.43377 6.66791 2.68377 4.41791 2.68704 4.42725 1.99954 2.55225 2.02309 2.60288 1.27309 1.29038 1.3268 1.3607 0.514298 0.548202 0.621795 0.620192-0.128205 0.307692ZM68.2541 95.1723 75.9918 99.6588 67.76 103.157Z" transform="matrix(1.83697e-16 1 1 -1.83697e-16 1416.5 329.5)"/><path d="M981.833 278.499 982.096 343.941 981.43 343.944 981.167 278.501ZM985.758 342.593 981.79 350.609 977.758 342.625Z"/><rect x="1389.5" y="404.5" width="69" height="31" stroke="#000000" stroke-width="1.33333" stroke-miterlimit="8" fill="#F4B183"/><text font-family="Times New Roman,Times New Roman_MSFontService,sans-serif" font-weight="400" font-size="8" transform="translate(1409.82 418)">DPRNN<tspan font-size="8" x="-5.42004" y="9">(Luo, 2020)</tspan></text><path d="M0.333331-0.00111494 0.388303 16.4336-0.27836 16.4358-0.333331 0.00111494ZM4.05049 15.088 0.0772703 23.1013-3.94947 15.1147Z" transform="matrix(-1 0 0 1 1423.58 381.5)"/><rect x="1317.5" y="472.5" width="68" height="31" stroke="#000000" stroke-width="1.33333" stroke-miterlimit="8" fill="#F4B183"/><text font-family="Times New Roman,Times New Roman_MSFontService,sans-serif" font-weight="400" font-size="8" transform="translate(1342.42 486)">DCN<tspan font-size="8" x="-15.8333" y="9">(Pandey, 2021)</tspan></text><path d="M0.333327-0.001994 0.835285 83.9079 0.16863 83.9119-0.333327 0.001994ZM4.49391 82.5526 0.541837 90.5764-3.50595 82.6004Z" transform="matrix(-1 0 0 1 1352.04 381.5)"/><path d="M903.833 34.4928 903.891 37.1588 903.225 37.1734 903.167 34.5073ZM903.935 39.1583 903.993 41.8244 903.327 41.8389 903.269 39.1729ZM904.037 43.8239 904.095 46.4899 903.429 46.5045 903.37 43.8384ZM904.139 48.4894 904.197 51.1555 903.53 51.17 903.472 48.504ZM904.241 53.155 904.299 55.821 903.632 55.8356 903.574 53.1695ZM904.342 57.8206 904.401 60.4866 903.734 60.5011 903.676 57.8351ZM904.444 62.4861 904.502 65.1521 903.836 65.1667 903.778 62.5007ZM904.546 67.1517 904.604 69.8177 903.938 69.8322 903.88 67.1662ZM904.648 71.8172 904.706 74.4833 904.04 74.4978 903.981 71.8318ZM904.75 76.4828 904.808 79.1488 904.141 79.1634 904.083 76.4973ZM904.852 81.1483 904.91 83.8144 904.243 83.8289 904.185 81.1629ZM904.953 85.8139 905.012 88.4799 904.345 88.4945 904.287 85.8284ZM905.055 90.4795 905.113 93.1455 904.447 93.16 904.389 90.494ZM905.157 95.145 905.215 97.811 904.549 97.8256 904.49 95.1595ZM905.259 99.8106 905.317 102.477 904.651 102.491 904.592 99.8251ZM905.361 104.476 905.419 107.142 904.752 107.157 904.694 104.491ZM905.462 109.142 905.521 111.808 904.854 111.822 904.796 109.156ZM905.564 113.807 905.622 116.473 904.956 116.488 904.898 113.822ZM905.666 118.473 905.724 121.139 905.058 121.153 905 118.487ZM905.768 123.138 905.826 125.804 905.16 125.819 905.101 123.153ZM905.87 127.804 905.928 130.47 905.261 130.484 905.203 127.818ZM905.972 132.469 906.03 135.135 905.363 135.15 905.305 132.484ZM906.073 137.135 906.132 139.801 905.465 139.816 905.407 137.15ZM906.175 141.801 906.233 144.467 905.567 144.481 905.509 141.815ZM906.277 146.466 906.335 149.132 905.669 149.147 905.611 146.481ZM906.379 151.132 906.437 153.798 905.771 153.812 905.712 151.146ZM906.481 155.797 906.539 158.463 905.872 158.478 905.814 155.812ZM906.583 160.463 906.641 163.129 905.974 163.143 905.916 160.477ZM906.684 165.128 906.743 167.794 906.076 167.809 906.018 165.143ZM906.786 169.794 906.844 172.46 906.178 172.474 906.12 169.808ZM906.888 174.459 906.946 177.125 906.28 177.14 906.221 174.474ZM906.99 179.125 907.048 181.791 906.382 181.806 906.323 179.14ZM907.092 183.791 907.15 186.457 906.483 186.471 906.425 183.805ZM907.193 188.456 907.252 191.122 906.585 191.137 906.527 188.471ZM907.295 193.122 907.353 195.788 906.687 195.802 906.629 193.136ZM907.397 197.787 907.455 200.453 906.789 200.468 906.731 197.802ZM907.499 202.453 907.557 205.119 906.891 205.133 906.832 202.467ZM907.601 207.118 907.659 209.784 906.992 209.799 906.934 207.133ZM907.703 211.784 907.761 214.45 907.094 214.465 907.036 211.799ZM907.804 216.45 907.863 219.116 907.196 219.13 907.138 216.464ZM907.906 221.115 907.964 223.781 907.298 223.796 907.24 221.13ZM908.008 225.781 908.066 228.447 907.4 228.461 907.342 225.795ZM908.11 230.446 908.168 233.112 907.502 233.127 907.443 230.461ZM908.212 235.112 908.27 237.778 907.603 237.792 907.545 235.126ZM908.314 239.777 908.372 242.443 907.705 242.458 907.647 239.792ZM908.415 244.443 908.474 247.109 907.807 247.124 907.749 244.457ZM908.517 249.108 908.575 251.775 907.909 251.789 907.851 249.123ZM908.619 253.774 908.677 256.44 908.011 256.455 907.952 253.789ZM908.721 258.44 908.779 261.106 908.112 261.12 908.054 258.454ZM908.823 263.105 908.881 265.771 908.214 265.786 908.156 263.12ZM908.924 267.771 908.983 270.437 908.316 270.451 908.258 267.785ZM909.026 272.436 909.084 275.102 908.418 275.117 908.36 272.451ZM909.128 277.102 909.186 279.768 908.52 279.782 908.462 277.116ZM909.23 281.767 909.288 284.433 908.622 284.448 908.563 281.782ZM909.332 286.433 909.39 289.099 908.723 289.114 908.665 286.448ZM909.434 291.099 909.492 293.765 908.825 293.779 908.767 291.113ZM909.535 295.764 909.594 298.43 908.927 298.445 908.869 295.779ZM909.637 300.43 909.695 303.096 909.029 303.11 908.971 300.444ZM909.739 305.095 909.797 307.761 909.131 307.776 909.073 305.11ZM909.841 309.761 909.899 312.427 909.233 312.441 909.174 309.775ZM909.943 314.426 910.001 317.092 909.334 317.107 909.276 314.441ZM910.044 319.092 910.103 321.758 909.436 321.773 909.378 319.106ZM910.146 323.758 910.205 326.424 909.538 326.438 909.48 323.772ZM910.248 328.423 910.306 331.089 909.64 331.104 909.582 328.438ZM910.35 333.089 910.408 335.755 909.742 335.769 909.683 333.103ZM910.452 337.754 910.51 340.42 909.844 340.435 909.785 337.769ZM910.554 342.42 910.612 345.086 909.945 345.1 909.887 342.434ZM910.655 347.085 910.714 349.751 910.047 349.766 909.989 347.1ZM910.757 351.751 910.815 354.417 910.149 354.431 910.091 351.765ZM910.859 356.416 910.917 359.082 910.251 359.097 910.193 356.431ZM910.961 361.082 911.019 363.748 910.353 363.763 910.294 361.097ZM911.063 365.748 911.121 368.414 910.454 368.428 910.396 365.762ZM911.165 370.413 911.223 373.079 910.556 373.094 910.498 370.428ZM911.266 375.079 911.325 377.745 910.658 377.759 910.6 375.093ZM911.368 379.744 911.426 382.41 910.76 382.425 910.702 379.759ZM911.47 384.41 911.528 387.076 910.862 387.09 910.804 384.424ZM911.572 389.075 911.63 391.741 910.964 391.756 910.905 389.09ZM911.674 393.741 911.732 396.407 911.065 396.421 911.007 393.755ZM911.776 398.406 911.834 401.072 911.167 401.087 911.109 398.421ZM911.877 403.072 911.935 405.738 911.269 405.752 911.211 403.086ZM911.979 407.737 912.037 410.403 911.371 410.418 911.313 407.752ZM912.081 412.403 912.139 415.069 911.473 415.084 911.414 412.418ZM912.183 417.069 912.241 419.734 911.574 419.749 911.516 417.083ZM912.285 421.734 912.343 424.4 911.676 424.415 911.618 421.749ZM912.386 426.4 912.445 429.066 911.778 429.08 911.72 426.414ZM912.488 431.065 912.546 433.731 911.88 433.746 911.822 431.08ZM912.59 435.731 912.648 438.397 911.982 438.411 911.924 435.745ZM912.692 440.396 912.75 443.062 912.084 443.077 912.025 440.411ZM912.794 445.062 912.852 447.728 912.185 447.742 912.127 445.076ZM912.896 449.727 912.954 452.393 912.287 452.408 912.229 449.742ZM912.997 454.393 913.056 457.059 912.389 457.073 912.331 454.407ZM913.099 459.058 913.157 461.724 912.491 461.739 912.433 459.073ZM913.201 463.724 913.229 465.008 912.563 465.023 912.534 463.738ZM916.866 463.596 913.041 471.681 908.868 463.77Z"/><path d="M0.317108-0.102731 19.0796 57.8128 18.4454 58.0182-0.317108 0.102731ZM22.1569 55.4143 20.8171 64.2576 14.5463 57.8798Z" transform="matrix(-1 0 0 1 1075.32 139.5)"/><path d="M1075.65 139.201 1199.91 200.509 1199.62 201.107 1075.35 139.799ZM1200.34 196.631 1205.74 203.758 1196.8 203.805Z"/><path d="M1075.8 139.359 1123.52 241.606 1122.91 241.888 1075.2 139.641ZM1126.27 238.848 1126.03 247.789 1119.02 242.231Z"/><path d="M0.147903-0.298724 35.0257 16.9698 34.7299 17.5672-0.147903 0.298724ZM35.4577 13.0922 40.8523 20.2266 31.9081 20.2616Z" transform="matrix(-1 0 0 1 1126.35 278.5)"/><path d="M912.83 503.525 912.516 507.737 911.568 511.97 909.99 516.198 907.849 520.355 905.144 524.507 901.938 528.592 898.171 532.611 893.905 536.626 889.139 540.514 883.939 544.336 878.301 548.094 872.226 551.727 865.778 555.295 858.953 558.739 844.186 565.309 828.169 571.315 811.028 576.758 792.887 581.512 773.997 585.578 754.42 588.83 734.405 591.269 714.014 592.771 693.499 593.271 652.615 592.708 632.61 592.083 613.043 591.208 594.164 590.145 576.034 588.832 558.904 587.395 542.899 585.769 528.143 584.018 521.326 583.08 514.884 582.142 508.816 581.141 503.187 580.14 497.992 579.139 493.233 578.074 488.974 577.01 485.209 575.943 481.983 574.804 479.527 573.403 479.857 572.824 482.288 574.211 482.234 574.186 485.421 575.311 485.401 575.304 489.151 576.367 489.141 576.364 493.391 577.427 493.383 577.425 498.133 578.487 498.123 578.485 503.311 579.485 503.306 579.484 508.931 580.484 508.927 580.484 514.989 581.484 514.983 581.483 521.421 582.42 521.418 582.42 528.23 583.357 528.224 583.357 542.974 585.107 542.969 585.106 558.969 586.731 558.963 586.73 576.088 588.168 576.084 588.168 594.209 589.48 594.204 589.48 613.079 590.542 613.075 590.542 632.637 591.417 632.633 591.417 652.633 592.042 652.627 592.042 693.502 592.604 693.489 592.604 713.989 592.104 713.973 592.105 734.348 590.605 734.332 590.607 754.332 588.169 754.318 588.171 773.88 584.921 773.865 584.924 792.74 580.862 792.726 580.865 810.851 576.115 810.834 576.12 827.959 570.682 827.943 570.688 843.943 564.688 843.925 564.696 858.675 558.133 858.66 558.14 865.472 554.703 865.461 554.708 871.899 551.146 871.889 551.151 877.951 547.526 877.938 547.535 883.563 543.785 883.55 543.794 888.738 539.982 888.724 539.992 893.474 536.117 893.457 536.132 897.707 532.132 897.692 532.147 901.442 528.147 901.423 528.169 904.61 524.107 904.593 524.131 907.281 520.006 907.264 520.035 909.389 515.91 909.373 515.946 910.935 511.759 910.922 511.802 911.86 507.615 911.853 507.663 912.165 503.475ZM478.221 577.065 474.5 568.931 483.239 570.835Z"/><rect x="1251.5" y="594.5" width="36" height="17" stroke="#000000" stroke-width="1.33333" stroke-miterlimit="8" fill="#9DC3E6"/><text font-family="Times New Roman,Times New Roman_MSFontService,sans-serif" font-weight="400" font-size="16" transform="translate(1297.26 609)">Hybrid Model</text><rect x="1251.5" y="637.5" width="36" height="17" stroke="#000000" stroke-width="1.33333" stroke-miterlimit="8" fill="#FFF2CC"/><text font-family="Times New Roman,Times New Roman_MSFontService,sans-serif" font-weight="400" font-size="16" transform="translate(1297.26 650)">Magnitude Spec</text><rect x="1251.5" y="681.5" width="36" height="17" stroke="#000000" stroke-width="1.33333" stroke-miterlimit="8" fill="#D9F0F1"/><text font-family="Times New Roman,Times New Roman_MSFontService,sans-serif" font-weight="400" font-size="16" transform="translate(1302.61 694)">Decouple<tspan font-size="16" x="61.5" y="0">-</tspan><tspan font-size="16" x="66.8334" y="0">style</tspan></text><rect x="1422.5" y="638.5" width="36" height="17" stroke="#000000" stroke-width="1.33333" stroke-miterlimit="8" fill="#DAE3F3"/><text font-family="Times New Roman,Times New Roman_MSFontService,sans-serif" font-weight="400" font-size="16" transform="translate(1469.3 653)">Complex Spec</text><rect x="1422.5" y="592.5" width="36" height="17" stroke="#000000" stroke-width="1.33333" stroke-miterlimit="8" fill="#F4B183"/><text font-family="Times New Roman,Times New Roman_MSFontService,sans-serif" font-weight="400" font-size="16" transform="translate(1470.31 606)">Time<tspan font-size="16" x="33.4399" y="0">-</tspan><tspan font-size="16" x="38.7733" y="0">domain</tspan></text><path d="M1420.5 689.167 1456.48 689.167 1456.48 689.833 1420.5 689.833ZM1455.14 685.5 1463.14 689.5 1455.14 693.5Z" fill="#A5A5A5"/><text font-family="Times New Roman,Times New Roman_MSFontService,sans-serif" font-weight="400" font-size="16" transform="translate(1467.7 695)">From Mag to Other<tspan font-size="16" x="-519.379" y="-74">IBM/IRM/PSM/</tspan>cIRM<tspan font-size="16" x="-376.379" y="-74">: masks</tspan><tspan font-size="16" x="-681.604" y="0">LPS/Mag/STFT: log power spec/magnitude spec/complex spec</tspan><tspan font-size="16" x="-681.187" y="-77">cprs</tspan>: compressed spec<tspan font-size="16" x="-518.79" y="-50">MP: mag and phase estimation</tspan><tspan font-size="16" x="-683.355" y="-25">pcRM</tspan>: polar coordinate-wise complex mask<tspan font-size="16" x="-683.42" y="-50">PL: progressive learning</tspan></text></g></svg>
